<?xml version="1.0" encoding="UTF-8" standalone="no"?>
<svg width="1423px" height="233px" viewBox="0 0 1423 233" version="1.1" xmlns="http://www.w3.org/2000/svg" xmlns:xlink="http://www.w3.org/1999/xlink">
    <!-- Generator: Sketch 45.2 (43514) - http://www.bohemiancoding.com/sketch -->
    <title>logotype-inline</title>
    <desc>Created with Sketch.</desc>
    <defs/>
    <g id="Symbols" stroke="none" stroke-width="1" fill="none" fill-rule="evenodd">
        <g id="logotype-inline" fill-rule="nonzero">
            <g id="svg_1" transform="translate(285.000000, 190.000000)" fill="#9B9B9B">
                <path d="M6.58417979e-14,40 L6.58417979e-14,1 L4.05405405,1 L4.05405405,22.7591463 C4.05405405,26.8018293 3.93822394,30.3689024 3.70656371,33.5792683 L3.93822394,33.5792683 L25.2509653,1 L30,1 L30,40 L25.9459459,40 L25.9459459,18.4786585 C25.9459459,14.9115854 26.0617761,11.1067073 26.4092664,7.18292683 L26.1776062,7.18292683 L4.74903475,40 L0,40 L6.58417979e-14,40 Z" id="svg_2"/>
                <polygon id="svg_3" points="55 40 55 1 59.4257028 1 59.4257028 17.6463415 79.5742972 17.6463415 79.5742972 1 84 1 84 40 79.5742972 40 79.5742972 21.570122 59.4257028 21.570122 59.4257028 40"/>
                <polygon id="svg_4" points="104 5.04268293 104 1 133 1 133 5.04268293 120.739837 5.04268293 120.739837 40 116.260163 40 116.260163 5.04268293 104 5.04268293"/>
                <polygon id="svg_5" points="152 40 152 1 173 1 173 5.04268293 156.360656 5.04268293 156.360656 17.527439 171.967213 17.527439 171.967213 21.570122 156.360656 21.570122 156.360656 35.9573171 173 35.9573171 173 40"/>
                <path d="M190,39.2972973 L190,35.6666667 C190.942857,36.1351351 192.003571,36.3693694 192.946429,36.3693694 C193.889286,36.3693694 194.714286,36.018018 195.421429,35.1981982 C196.128571,34.3783784 196.717857,33.0900901 197.307143,31.2162162 C197.896429,29.3423423 198.485714,25.7117117 199.310714,20.4414414 C200.017857,15.1711712 200.960714,8.72972973 202.139286,1 L223,1 L223,39.4144144 L218.521429,39.4144144 L218.521429,4.98198198 L205.910714,4.98198198 L205.085714,11.3063063 C204.025,19.7387387 203.082143,25.8288288 202.257143,29.6936937 C201.432143,33.5585586 200.371429,36.2522523 198.957143,37.7747748 C197.542857,39.2972973 195.775,40 193.653571,40 C192.239286,40 191.060714,39.7657658 190,39.2972973 L190,39.2972973 Z" id="svg_6"/>
                <path d="M243,39.2972973 L243,35.6666667 C243.94964,36.1351351 245.017986,36.3693694 245.967626,36.3693694 C246.917266,36.3693694 247.748201,36.018018 248.460432,35.1981982 C249.172662,34.3783784 249.766187,33.0900901 250.359712,31.2162162 C250.953237,29.3423423 251.546763,25.7117117 252.377698,20.4414414 C253.089928,15.1711712 254.039568,8.72972973 255.226619,1 L276,1 L276,39.4144144 L271.489209,39.4144144 L271.489209,4.98198198 L258.78777,4.98198198 L257.956835,11.3063063 C256.888489,19.7387387 255.938849,25.8288288 255.107914,29.6936937 C254.276978,33.5585586 253.208633,36.2522523 251.784173,37.7747748 C250.359712,39.2972973 248.579137,40 246.442446,40 C245.136691,40 243.94964,39.7657658 243,39.2972973 L243,39.2972973 Z" id="svg_7"/>
                <polygon id="svg_8" points="300 40 300 1 321 1 321 5.04268293 304.360656 5.04268293 304.360656 17.527439 319.967213 17.527439 319.967213 21.570122 304.360656 21.570122 304.360656 35.9573171 321 35.9573171 321 40"/>
                <polygon id="svg_9" points="343 40 343 1 347.508475 1 347.508475 19.9054878 365.067797 1 370.288136 1 352.966102 19.9054878 371 40 365.542373 40 347.508475 20.2621951 347.508475 40 343 40"/>
                <polygon id="svg_10" points="385 5.04268293 385 1 414 1 414 5.04268293 401.739837 5.04268293 401.739837 40 397.260163 40 397.260163 5.04268293 385 5.04268293"/>
                <path d="M429,1 L433.95,1 L445.382143,22.9009009 C445.853571,23.7207207 446.207143,24.6576577 446.442857,25.4774775 L446.678571,25.4774775 C447.15,23.954955 447.503571,23.018018 447.739286,22.6666667 L457.285714,1 L462,1 L449.625,28.5225225 C448.092857,31.8018018 446.796429,34.1441441 445.617857,35.6666667 C444.439286,37.1891892 443.142857,38.2432432 441.610714,38.9459459 C440.078571,39.6486486 438.310714,40 436.071429,40 C434.067857,40 432.417857,39.7657658 430.885714,39.1801802 L430.885714,34.8468468 C432.535714,35.5495495 434.185714,36.018018 435.835714,36.018018 C437.721429,36.018018 439.371429,35.5495495 440.55,34.7297297 C441.728571,33.7927928 442.907143,32.1531532 444.085714,29.6936937 L429,1 L429,1 Z" id="svg_11"/>
                <path d="M476,39 L491.189003,0 L494.927835,0 L510,39 L505.32646,39 L500.536082,26.5909091 L485.347079,26.5909091 L480.67354,39 L476,39 Z M486.865979,22.6909091 L499.250859,22.6909091 L494.810997,10.6363636 C494.226804,9.1 493.642612,7.20909091 493.058419,5.08181818 C492.707904,6.73636364 492.123711,8.62727273 491.42268,10.6363636 L486.865979,22.6909091 L486.865979,22.6909091 Z" id="svg_12"/>
                <path d="M524,39.2972973 L524,35.6666667 C524.946237,36.1351351 526.010753,36.3693694 526.956989,36.3693694 C527.903226,36.3693694 528.731183,36.018018 529.44086,35.1981982 C530.150538,34.3783784 530.741935,33.0900901 531.333333,31.2162162 C531.924731,29.3423423 532.516129,25.7117117 533.344086,20.4414414 C534.053763,15.1711712 535,8.72972973 536.182796,1 L557,1 L557,39.4144144 L552.505376,39.4144144 L552.505376,4.98198198 L539.849462,4.98198198 L539.021505,11.3063063 C537.956989,19.7387387 537.010753,25.8288288 536.182796,29.6936937 C535.354839,33.5585586 534.290323,36.2522523 532.870968,37.7747748 C531.569892,39.2972973 529.677419,40 527.548387,40 C526.247312,40 525.064516,39.7657658 524,39.2972973 L524,39.2972973 Z" id="svg_13"/>
                <path d="M581,39.881459 L581,1 L585.519824,1 L585.519824,17.5957447 L593.251101,17.5957447 C598.008811,17.5957447 601.577093,18.5440729 604.193833,20.4407295 C606.69163,22.337386 608,25.0638298 608,28.6200608 C608,32.1762918 606.810573,35.0212766 604.431718,37.0364742 C602.052863,39.0516717 598.603524,40 594.0837,40 L581,40 L581,39.881459 Z M585.519824,35.9696049 L593.488987,35.9696049 C600.030837,35.9696049 603.242291,33.4802432 603.242291,28.5015198 C603.242291,26.1306991 602.409692,24.3525836 600.744493,23.1671733 C599.079295,21.9817629 596.462555,21.5075988 592.77533,21.5075988 L585.519824,21.5075988 L585.519824,35.9696049 L585.519824,35.9696049 Z" id="svg_14"/>
                <polygon id="svg_15" points="630 40 630 1 634.425703 1 634.425703 17.6463415 654.574297 17.6463415 654.574297 1 659 1 659 40 654.574297 40 654.574297 21.570122 634.425703 21.570122 634.425703 40"/>
                <path d="M682,19.8816568 C682,13.4911243 683.544554,8.63905325 686.752475,5.20710059 C689.841584,1.77514793 694.356436,0 700.059406,0 C705.643564,0 710.039604,1.77514793 713.247525,5.32544379 C716.455446,8.87573964 718,13.7278107 718,20 C718,26.1538462 716.455446,31.1242604 713.247525,34.6745562 C710.039604,38.2248521 705.643564,40 700.059406,40 C694.356436,40 689.841584,38.2248521 686.752475,34.7928994 C683.544554,31.2426036 682,26.2721893 682,19.8816568 Z M686.752475,20 C686.752475,25.3254438 687.821782,29.2307692 690.079208,31.9526627 C692.336634,34.6745562 695.544554,36.0946746 699.940594,36.0946746 C704.217822,36.0946746 707.544554,34.7928994 709.683168,32.0710059 C711.821782,29.3491124 713.009901,25.3254438 713.009901,20.1183432 C713.009901,14.9112426 711.940594,10.887574 709.683168,8.16568047 C707.544554,5.44378698 704.217822,4.14201183 699.940594,4.14201183 C695.663366,4.14201183 692.336634,5.56213018 690.079208,8.28402367 C687.940594,10.7692308 686.752475,14.7928994 686.752475,20 Z" id="svg_16"/>
                <polygon id="svg_17" points="740 40 740 1 761.880435 1 761.880435 5.04268293 744.663043 5.04268293 744.663043 17.527439 760.923913 17.527439 760.923913 21.570122 744.663043 21.570122 744.663043 35.9573171 762 35.9573171 762 40"/>
                <path d="M826,19.9410029 C826,15.9292035 826.701613,12.5073746 828.221774,9.43952802 C829.741935,6.48967552 831.846774,4.12979351 834.653226,2.47787611 C837.459677,0.825958702 840.733871,0 844.475806,0 C848.451613,0 852.076613,0.707964602 855,2.24188791 L853.129032,6.13569322 C850.205645,4.71976401 847.282258,4.01179941 844.358871,4.01179941 C840.149194,4.01179941 836.758065,5.42772861 834.419355,8.25958702 C831.96371,11.0914454 830.794355,14.9852507 830.794355,19.9410029 C830.794355,25.0147493 831.96371,28.9085546 834.302419,31.740413 C836.641129,34.4542773 840.032258,35.8702065 844.358871,35.8702065 C847.048387,35.8702065 850.08871,35.3982301 853.479839,34.4542773 L853.479839,38.4660767 C850.790323,39.5280236 847.516129,40 843.657258,40 C838.044355,40 833.600806,38.2300885 830.560484,34.8082596 C827.520161,31.1504425 826,26.3126844 826,19.9410029 L826,19.9410029 Z" id="svg_18"/>
                <polygon id="svg_19" points="876 40 876 1 897 1 897 5.04268293 880.360656 5.04268293 880.360656 17.527439 895.967213 17.527439 895.967213 21.570122 880.360656 21.570122 880.360656 35.9573171 897 35.9573171 897 40"/>
                <path d="M921,39.881459 L921,1 L930.807692,1 C940.269231,1 945,4.79331307 945,12.3799392 C945,16.2917933 943.730769,19.3738602 941.076923,21.5075988 C938.423077,23.6413374 934.730769,24.7082067 929.884615,24.7082067 L925.384615,24.7082067 L925.384615,40 L921,40 L921,39.881459 L921,39.881459 Z M925.384615,20.6778116 L929.307692,20.6778116 C933.230769,20.6778116 936,20.0851064 937.730769,18.781155 C939.461538,17.4772036 940.384615,15.4620061 940.384615,12.4984802 C940.384615,9.89057751 939.576923,7.99392097 937.961538,6.6899696 C936.346154,5.38601824 933.807692,4.79331307 930.346154,4.79331307 L925.384615,4.79331307 L925.384615,20.6778116 L925.384615,20.6778116 Z" id="svg_20"/>
                <polygon id="svg_21" points="967 40 967 1 988 1 988 5.04268293 971.360656 5.04268293 971.360656 17.527439 986.967213 17.527439 986.967213 21.570122 971.360656 21.570122 971.360656 35.9573171 988 35.9573171 988 40"/>
                <path d="M1011,40 L1011,1 L1033.76995,1 L1033.76995,5.04268293 L1015.46009,5.04268293 L1015.46009,17.6463415 L1021.44601,17.6463415 C1024.84977,17.6463415 1027.5493,18.0030488 1029.77934,18.8353659 C1031.89202,19.6676829 1033.53521,20.8567073 1034.47418,22.402439 C1035.53052,23.9481707 1036,26.0884146 1036,28.7042683 C1036,32.6280488 1034.82629,35.4817073 1032.59624,37.2652439 C1030.3662,39.1676829 1026.84507,40 1022.26761,40 L1011,40 Z M1015.46009,36.0762195 L1021.79812,36.0762195 C1025.08451,36.0762195 1027.5493,35.4817073 1029.07512,34.2926829 C1030.60094,33.1036585 1031.30516,31.2012195 1031.30516,28.5853659 C1031.30516,26.0884146 1030.48357,24.304878 1028.95775,23.2347561 C1027.43192,22.1646341 1024.73239,21.6890244 1020.85915,21.6890244 L1015.46009,21.6890244 L1015.46009,36.0762195 L1015.46009,36.0762195 Z" id="svg_22"/>
                <path d="M1057,39.881459 L1057,1 L1066.80769,1 C1076.26923,1 1081,4.79331307 1081,12.3799392 C1081,16.2917933 1079.73077,19.3738602 1077.07692,21.5075988 C1074.42308,23.6413374 1070.73077,24.7082067 1065.88462,24.7082067 L1061.38462,24.7082067 L1061.38462,40 L1057,40 L1057,39.881459 L1057,39.881459 Z M1061.5,20.6778116 L1065.42308,20.6778116 C1069.34615,20.6778116 1072.11538,20.0851064 1073.84615,18.781155 C1075.57692,17.4772036 1076.5,15.4620061 1076.5,12.4984802 C1076.5,9.89057751 1075.69231,7.99392097 1074.07692,6.6899696 C1072.46154,5.38601824 1069.92308,4.79331307 1066.46154,4.79331307 L1061.5,4.79331307 L1061.5,20.6778116 L1061.5,20.6778116 Z" id="svg_23"/>
                <path d="M1102,19.8816568 C1102,13.4911243 1103.54455,8.63905325 1106.75248,5.20710059 C1109.84158,1.77514793 1114.35644,0 1120.05941,0 C1125.64356,0 1130.0396,1.77514793 1133.24752,5.32544379 C1136.45545,8.87573964 1138,13.7278107 1138,20 C1138,26.1538462 1136.45545,31.1242604 1133.24752,34.6745562 C1130.0396,38.2248521 1125.64356,40 1120.05941,40 C1114.35644,40 1109.84158,38.2248521 1106.75248,34.7928994 C1103.54455,31.2426036 1102,26.2721893 1102,19.8816568 Z M1106.75248,20 C1106.75248,25.3254438 1107.82178,29.2307692 1110.07921,31.9526627 C1112.33663,34.6745562 1115.54455,36.0946746 1119.94059,36.0946746 C1124.21782,36.0946746 1127.54455,34.7928994 1129.68317,32.0710059 C1131.82178,29.3491124 1133.0099,25.3254438 1133.0099,20.1183432 C1133.0099,14.9112426 1131.94059,10.887574 1129.68317,8.16568047 C1127.54455,5.44378698 1124.21782,4.14201183 1119.94059,4.14201183 C1115.66337,4.14201183 1112.33663,5.56213018 1110.07921,8.28402367 C1107.94059,10.7692308 1106.75248,14.7928994 1106.75248,20 Z" id="svg_24"/>
            </g>
            <g id="svg_25">
                <polygon id="svg_26" fill="#facc4d" points="179 56.4000015 179.199997 3 232 43.7000008"/>
                <polygon id="svg_27" fill="#facc4d" points="183 0 232.699997 38.2000008 227 21.6000004 201.5 1.60000002"/>
                <path d="M104.1172,139.3928 C106.30929,141.82187 106.23066,144.28549 103.97027,145.96877 C101.67204,147.7063 97.8052,147.29731 95.69874,144.96312 C89.99208,138.72369 90.55144,129.75058 96.6207,125.03005 C103.41438,119.7982 113.78369,120.80564 119.73741,127.31505 C129.1816,137.68681 128.10216,152.64472 117.40487,160.9184 C106.55038,169.29431 89.59465,167.60142 79.98525,157.04824 C66.79053,142.622 68.25319,121.6573 83.01189,110.23688 C98.49268,98.31491 121.85694,100.58759 135.22732,115.30398 C152.17789,133.88616 150.20656,160.84606 130.89984,175.8223 C111.37303,190.87799 81.51159,187.9231 64.38256,169.14529 C43.74735,146.4834 46.09956,113.52405 69.50908,95.43905 C93.69658,76.8119 130.06294,80.29043 150.93069,103.20768 C175.38869,129.99946 172.49091,169.04776 144.51084,190.6138 C116.81043,212.02292 73.86242,207.66375 49.38717,180.75036 C21.31344,149.95375 24.42673,104.88379 56.00525,80.54201 C88.3318,55.58818 137.69284,60.52135 166.03237,91.60953 C198.07628,126.69618 194.59298,177.23305 158.10097,205.52143 C121.73091,233.60824 65.77821,227.98337 33.78525,192.84824 C-1.79627,153.84176 2.23782,96.77554 42.50492,65.74226 C83.44152,34.08336 145.90022,40.22829 181.73338,79.51063 L188.38256,73.44529 C149.42053,30.7329 81.67992,24.06831 37.00503,58.61828 C-7.48205,92.90383 -11.94724,156.06825 27.13338,198.91063 C62.24651,237.47238 123.48076,243.6282 163.60842,212.63956 C204.31756,181.0821 208.22045,124.45769 172.68076,85.54332 C141.21999,51.03117 86.58059,45.57048 50.50823,73.4158 C14.70182,101.01658 11.16741,152.18308 42.73237,186.80953 C70.32493,217.15078 118.55873,222.04645 150.00983,197.73848 C182.19931,172.92798 185.54968,127.78102 157.5814,97.14402 C133.58361,70.78929 91.93901,66.8059 64.01229,88.31268 C36.38379,109.65704 33.59713,148.70387 57.73069,175.20768 C77.98832,197.41525 113.12453,200.8921 136.40569,182.94167 C159.91614,164.70461 162.33214,131.66328 141.88256,109.24529 C125.3883,91.09052 96.74147,88.304 77.51229,103.11268 C58.53,117.80134 56.64208,144.86149 73.33742,163.11505 C86.0643,177.09192 108.30028,179.31199 122.90709,168.04059 C137.81487,156.51036 139.33338,135.46806 126.38525,121.24824 C117.29514,111.30971 101.65893,109.79055 91.11229,117.91268 C80.80481,125.92954 79.86611,140.98776 89.03742,151.01505 C94.22344,156.76187 103.34238,157.72638 109.37196,153.16743 C116.09733,148.15932 116.37243,139.53938 110.79874,133.36312 L104.1172,139.3928 Z" id="svg_28" fill="#facc4d"/>
                <path d="M407.708936,64.9736878 L407.708936,63.3357259 C407.708936,62.2017582 407.960928,61.3197747 408.338918,60.815789 C408.842903,60.3118034 409.346889,60.0598105 410.102867,60.0598105 C410.858855,60.0598105 411.488837,60.3118034 411.866826,60.815789 C412.370812,61.3197747 412.496808,62.2017582 412.496808,63.3357259 L412.496808,76.0614065 C412.496808,77.1953742 412.244815,78.0773491 411.866826,78.5813434 C411.488837,79.085329 410.858855,79.3373218 410.102867,79.3373218 C409.346889,79.3373218 408.842903,79.085329 408.338918,78.5813434 C407.960928,78.0773491 407.708936,77.3213707 407.582931,76.3133993 C407.330938,73.0374754 405.692984,70.0135529 402.543066,67.3676197 C399.393147,64.721695 395.235248,63.3357259 390.195374,63.3357259 C384.777511,63.3357259 380.493625,64.721695 377.343697,67.6196211 C374.193778,70.3915508 372.555825,73.7934625 372.555825,77.5733635 C372.555825,79.5893147 373.05981,81.353273 373.941785,82.9912264 C374.823769,84.6291884 376.083733,85.8891525 377.469693,86.8971324 C378.981659,87.9051037 380.619621,88.6610822 382.509567,89.2910642 C384.399522,89.9210549 387.297448,90.551037 391.203354,91.181019 C397.755185,92.3149953 402.417069,93.448963 404.937006,94.5829308 C408.338918,96.0948963 410.858855,98.2368439 412.496808,101.008774 C414.260766,103.780703 415.142741,106.930622 415.142741,110.710523 C415.142741,116.380379 412.874797,121.294256 408.464914,125.200162 C404.055022,129.232056 398.007177,131.248007 390.447367,131.248007 C382.005582,131.248007 375.201758,128.476078 370.161884,123.058215 L370.161884,125.956141 C370.161884,127.090108 369.909892,127.972092 369.531902,128.476078 C369.153904,128.980063 368.523922,129.232056 367.767944,129.232056 C367.011965,129.232056 366.507971,128.980063 366.003986,128.476078 C365.5,127.972092 365.374003,127.090108 365.374003,125.956141 L365.374003,112.348485 C365.374003,111.088521 365.625996,110.206538 366.003986,109.702552 C366.381975,109.198566 367.011965,108.946573 367.767944,108.946573 C368.397926,108.946573 369.027908,109.198566 369.531902,109.702552 C370.035888,110.206538 370.161884,110.962516 370.287881,111.970496 C370.539874,115.6244 372.429828,118.900316 375.957737,121.924247 C379.611641,124.948169 384.399522,126.460126 390.573363,126.460126 C396.747213,126.460126 401.535086,124.822173 405.063002,121.798242 C408.590911,118.648323 410.35486,114.994418 410.35486,110.710523 C410.35486,108.06459 409.598882,105.796654 408.338918,103.780703 C406.952949,101.764752 404.937006,100.12679 402.291073,98.9928224 C400.401118,98.1108475 396.621217,97.228864 390.69936,96.2208927 C382.635564,94.8349236 376.839711,92.6929846 373.311803,89.9210549 C369.783895,87.0231288 368.019937,82.9912264 368.019937,77.8253563 C368.019937,72.6594862 370.035888,68.1236067 374.193778,64.3436972 C378.225681,60.5637962 383.643543,58.6738414 390.321371,58.6738414 C396.999206,58.4218486 402.795058,60.6897926 407.708936,64.9736878 L407.708936,64.9736878 L407.708936,64.9736878 Z M475.621217,129.358052 L475.621217,122.17624 C468.565392,128.224085 461.005582,131.374004 452.941785,131.374004 C447.145933,131.374004 442.484049,129.862038 439.208133,126.838116 C435.932218,123.814193 434.294256,120.160288 434.294256,115.750397 C434.294256,110.962516 436.436204,106.678629 440.846095,103.150721 C445.129982,99.496808 451.555825,97.7328583 459.871614,97.7328583 C462.139549,97.7328583 464.53349,97.8588547 467.179423,98.2368439 C469.825356,98.4888367 472.723282,98.9928224 475.747213,99.6228045 L475.747213,91.5590083 C475.747213,88.7870786 474.487241,86.5191432 471.967304,84.3771955 C469.447367,82.3612443 465.793462,81.353273 460.879585,81.353273 C457.099684,81.353273 451.807818,82.4872408 444.877989,84.7551848 C443.618025,85.133174 442.862038,85.3851668 442.484049,85.3851668 C441.854067,85.3851668 441.350081,85.133174 440.846095,84.6291884 C440.468106,84.1252027 440.216105,83.4952121 440.216105,82.86523 C440.216105,82.2352479 440.468106,81.7312623 440.846095,81.227268 C441.350081,80.597286 443.618025,79.8413075 447.397926,78.8333362 C453.445771,77.1953742 457.981659,76.3133993 461.131578,76.3133993 C467.305419,76.3133993 472.0933,77.8253563 475.495212,80.9752752 C478.897132,84.1252027 480.661082,87.6531109 480.661082,91.5590083 L480.661082,124.570172 L487.212921,124.570172 C488.472885,124.570172 489.228864,124.822173 489.732858,125.200162 C490.236844,125.704148 490.488837,126.208133 490.488837,126.964112 C490.488837,127.720099 490.236844,128.224085 489.732858,128.72807 C489.228864,129.232056 488.346889,129.484049 487.212921,129.484049 L475.621217,129.484049 L475.621217,129.358052 Z M475.621217,104.662678 C473.353273,104.032696 470.959332,103.52871 468.313399,103.150721 C465.793462,102.89872 463.021533,102.646727 460.249603,102.646727 C453.193778,102.646727 447.649919,104.158693 443.618025,107.308611 C440.594102,109.576555 439.082137,112.474482 439.082137,115.6244 C439.082137,118.648323 440.216105,121.16826 442.484049,123.184211 C444.751993,125.200162 448.153904,126.33413 452.563796,126.33413 C456.721695,126.33413 460.627592,125.452155 464.281497,123.688197 C467.93541,121.924247 471.589315,119.278305 475.495212,115.498404 L475.495212,104.662678 L475.621217,104.662678 L475.621217,104.662678 Z M535.343697,55.0199368 L535.343697,124.444175 L554.495212,124.444175 C555.629188,124.444175 556.511163,124.696177 557.015149,125.074166 C557.519143,125.578151 557.771136,126.082137 557.771136,126.838116 C557.771136,127.594103 557.519143,128.098088 557.015149,128.602074 C556.511163,129.10606 555.629188,129.358052 554.495212,129.358052 L511.278313,129.358052 C510.144337,129.358052 509.262362,129.10606 508.758377,128.602074 C508.254382,128.098088 508.00239,127.468098 508.00239,126.838116 C508.00239,126.082137 508.254382,125.452155 508.758377,125.074166 C509.262362,124.570172 510.144337,124.444175 511.278313,124.444175 L530.429828,124.444175 L530.429828,60.0598105 L516.444175,60.0598105 C515.310207,60.0598105 514.428232,59.8078177 513.924238,59.3038321 C513.420252,58.7998378 513.16826,58.1698558 513.16826,57.4138773 C513.16826,56.6578988 513.420252,56.1539046 513.924238,55.6499189 C514.428232,55.1459333 515.310207,54.8939404 516.444175,54.8939404 L535.343697,54.8939404 L535.343697,55.0199368 Z M594.184211,78.0773491 L620.643543,78.0773491 C621.777511,78.0773491 622.659486,78.3293505 623.16348,78.8333362 C623.667466,79.3373218 623.919459,79.9673039 623.919459,80.7232824 C623.919459,81.4792695 623.667466,81.9832551 623.16348,82.4872408 C622.659486,82.9912264 621.777511,83.2432192 620.643543,83.2432192 L594.184211,83.2432192 L594.184211,116.380379 C594.184211,119.278305 595.318179,121.672245 597.586123,123.5622 C599.854067,125.452155 603.129982,126.460126 607.539874,126.460126 C610.815789,126.460126 614.343697,125.956141 618.249603,124.948169 C622.029504,123.940189 625.053427,122.806222 627.195374,121.546249 C627.951353,121.042263 628.581343,120.790271 629.085329,120.790271 C629.715311,120.790271 630.219297,121.042263 630.723282,121.546249 C631.227277,122.050243 631.353273,122.680225 631.353273,123.310207 C631.353273,123.940189 631.10128,124.444175 630.597286,124.948169 C629.337322,126.208133 626.313399,127.720099 621.525518,129.232056 C616.737638,130.744022 612.201758,131.5 607.791866,131.5 C602.122011,131.5 597.586123,130.114031 594.184211,127.468098 C590.782299,124.696177 589.144337,121.042263 589.144337,116.380379 L589.144337,83.2432192 L580.198566,83.2432192 C579.06459,83.2432192 578.182615,82.9912264 577.678629,82.4872408 C577.174644,81.9832551 576.922651,81.353273 576.922651,80.597286 C576.922651,79.8413075 577.174644,79.3373218 577.678629,78.8333362 C578.182615,78.3293505 579.06459,78.0773491 580.198566,78.0773491 L589.144337,78.0773491 L589.144337,63.3357259 C589.144337,62.2017582 589.39633,61.3197747 589.774319,60.815789 C590.278313,60.3118034 590.782299,60.0598105 591.538278,60.0598105 C592.294256,60.0598105 592.924247,60.3118034 593.302236,60.815789 C593.806222,61.3197747 593.932218,62.2017582 593.932218,63.3357259 L593.932218,78.0773491 L594.184211,78.0773491 L594.184211,78.0773491 Z M702.793462,103.9067 C702.793462,111.46651 700.147529,118.018341 694.855663,123.310207 C689.563796,128.72807 683.137962,131.374004 675.578151,131.374004 C668.018341,131.374004 661.592507,128.602074 656.30064,123.310207 C651.008773,117.892344 648.36284,111.46651 648.36284,103.9067 C648.36284,96.3468891 651.008773,89.7950585 656.30064,84.3771955 C661.592507,78.9593326 668.018341,76.3133993 675.578151,76.3133993 C683.137962,76.3133993 689.4378,78.9593326 694.855663,84.3771955 C700.147529,89.6690621 702.793462,96.2208927 702.793462,103.9067 L702.793462,103.9067 L702.793462,103.9067 Z M697.879585,103.9067 C697.879585,97.7328583 695.737637,92.3149953 691.327754,87.9051037 C686.917863,83.4952121 681.751993,81.353273 675.578151,81.353273 C669.40431,81.353273 664.112443,83.6212085 659.702552,88.0311001 C655.418657,92.4409917 653.150721,97.7328583 653.150721,103.9067 C653.150721,110.080541 655.29266,115.372408 659.702552,119.782299 C664.112443,124.192182 669.278313,126.460126 675.578151,126.460126 C681.751993,126.460126 687.043859,124.192182 691.327754,119.782299 C695.611641,115.372408 697.879585,110.080541 697.879585,103.9067 L697.879585,103.9067 L697.879585,103.9067 Z M844.66587,103.654707 L844.66587,124.948169 C840.885969,127.090108 837.232056,128.602074 833.578151,129.736042 C829.924247,130.744022 826.144337,131.374004 822.490433,131.374004 C817.324562,131.374004 812.662678,130.618025 808.756781,128.980063 C804.850875,127.342101 801.448963,125.200162 798.677033,122.302236 C795.905104,119.530306 793.763156,116.254383 792.251199,112.726474 C790.739233,109.198566 789.983255,104.788675 789.983255,99.3708116 L789.983255,90.1730477 C789.983255,84.7551848 791.369216,79.4633183 794.015149,74.2974482 C796.661082,69.131578 800.314995,65.2256807 804.850875,62.453751 C809.386763,59.6818213 814.426636,58.4218486 819.844499,58.4218486 C827.656303,58.4218486 834.33413,60.6897926 839.751993,64.9736878 C839.751993,63.083733 839.751993,61.8237603 840.003986,61.4457711 C840.129982,61.0677818 840.381975,60.6897926 840.885969,60.4377998 C841.263958,60.185807 841.767944,59.9338141 842.397926,59.9338141 C843.027908,59.9338141 843.657899,60.185807 844.161884,60.6897926 C844.66587,61.1937783 844.791866,62.0757617 844.791866,63.2097295 L844.791866,74.4234446 C844.791866,75.6834173 844.539874,76.5653922 844.161884,76.9433814 C843.657899,77.4473671 843.153904,77.6993599 842.397926,77.6993599 C841.767944,77.6993599 841.137962,77.4473671 840.759964,77.0693778 C840.381975,76.5653922 840.129982,75.8094137 840.003986,74.6754374 C839.751993,71.2735257 837.610045,68.501596 833.578151,66.3596484 C829.546249,64.2177008 825.136366,63.2097295 820.348485,63.2097295 C815.812597,63.2097295 811.780703,64.2177008 808.252795,66.233652 C804.598882,68.2496032 801.322967,72.0295041 798.173048,77.6993599 C796.0311,81.353273 795.023129,85.5111633 795.023129,90.1730477 L795.023129,99.2448152 C795.023129,107.560604 797.543066,114.112443 802.456934,118.900316 C807.370812,123.814193 814.30064,126.208133 822.994418,126.208133 C825.892344,126.208133 828.664274,125.830144 831.184211,125.200162 C833.704148,124.570172 836.602074,123.436204 840.003986,121.924247 L840.003986,103.52871 L823.246411,103.52871 C822.112443,103.52871 821.23046,103.276718 820.726474,102.89872 C820.222489,102.394734 819.970496,101.890748 819.970496,101.13477 C819.970496,100.378792 820.222489,99.7488009 820.726474,99.3708116 C821.23046,98.866826 822.112443,98.6148332 823.246411,98.6148332 L846.681821,98.6148332 C847.815789,98.6148332 848.697764,98.866826 849.201758,99.2448152 C849.705744,99.7488009 849.957737,100.252795 849.957737,101.008774 C849.957737,101.512759 849.83174,102.016745 849.453751,102.394734 C849.201758,102.772732 848.82376,103.150721 848.445771,103.276718 C847.689793,103.654707 846.555825,103.654707 844.66587,103.654707 L844.66587,103.654707 L844.66587,103.654707 Z M891.788674,52.5 L891.788674,65.3516771 L884.606862,65.3516771 L884.606862,52.5 L891.788674,52.5 L891.788674,52.5 Z M892.040667,78.0773491 L892.040667,124.444175 L911.192182,124.444175 C912.452155,124.444175 913.208133,124.696177 913.712119,125.074166 C914.216113,125.578151 914.468106,126.082137 914.468106,126.838116 C914.468106,127.594103 914.216113,128.098088 913.712119,128.602074 C913.208133,129.10606 912.326158,129.358052 911.192182,129.358052 L868.10128,129.358052 C866.967304,129.358052 866.085329,129.10606 865.581343,128.602074 C865.077349,128.098088 864.825356,127.468098 864.825356,126.838116 C864.825356,126.082137 865.077349,125.452155 865.581343,125.074166 C866.085329,124.570172 866.967304,124.444175 868.10128,124.444175 L887.252795,124.444175 L887.252795,83.1172228 L873.015149,83.1172228 C871.881181,83.1172228 870.999206,82.86523 870.495212,82.3612443 C869.991226,81.8572587 869.739233,81.227268 869.739233,80.597286 C869.739233,79.8413075 869.991226,79.2113254 870.495212,78.7073398 C870.999206,78.2033455 871.881181,77.9513527 873.015149,77.9513527 L892.040667,77.9513527 L892.040667,78.0773491 L892.040667,78.0773491 Z M988.050243,103.9067 C988.050243,111.46651 985.40431,118.018341 980.112443,123.310207 C974.820577,128.72807 968.394734,131.374004 960.834932,131.374004 C953.275122,131.374004 946.849279,128.602074 941.557421,123.310207 C936.265554,117.892344 933.619621,111.46651 933.619621,103.9067 C933.619621,96.3468891 936.265554,89.7950585 941.557421,84.3771955 C946.849279,78.9593326 953.275122,76.3133993 960.834932,76.3133993 C968.394734,76.3133993 974.69458,78.9593326 980.112443,84.3771955 C985.278313,89.6690621 988.050243,96.2208927 988.050243,103.9067 L988.050243,103.9067 L988.050243,103.9067 Z M983.010369,103.9067 C983.010369,97.7328583 980.868422,92.3149953 976.45853,87.9051037 C972.048647,83.4952121 966.882777,81.353273 960.708927,81.353273 C954.535086,81.353273 949.243219,83.6212085 944.833336,88.0311001 C940.549441,92.4409917 938.281497,97.7328583 938.281497,103.9067 C938.281497,110.080541 940.423444,115.372408 944.833336,119.782299 C949.243219,124.192182 954.409089,126.460126 960.708927,126.460126 C966.882777,126.460126 972.174644,124.192182 976.45853,119.782299 C980.868422,115.372408 983.010369,110.080541 983.010369,103.9067 L983.010369,103.9067 Z M1034.41707,52.5 L1034.41707,65.3516771 L1027.23525,65.3516771 L1027.23525,52.5 L1034.41707,52.5 L1034.41707,52.5 Z M1034.66906,78.0773491 L1034.66906,124.444175 L1053.82058,124.444175 C1055.08054,124.444175 1055.83652,124.696177 1056.34051,125.074166 C1056.8445,125.578151 1057.09649,126.082137 1057.09649,126.838116 C1057.09649,127.594103 1056.8445,128.098088 1056.34051,128.602074 C1055.83652,129.10606 1054.95454,129.358052 1053.82058,129.358052 L1010.72967,129.358052 C1009.59569,129.358052 1008.71371,129.10606 1008.20973,128.602074 C1007.70574,128.098088 1007.45375,127.468098 1007.45375,126.838116 C1007.45375,126.082137 1007.70574,125.452155 1008.20973,125.074166 C1008.71371,124.570172 1009.59569,124.444175 1010.72967,124.444175 L1029.88118,124.444175 L1029.88118,83.1172228 L1015.64354,83.1172228 C1014.50957,83.1172228 1013.62759,82.86523 1013.12361,82.3612443 C1012.61962,81.8572587 1012.36763,81.227268 1012.36763,80.597286 C1012.36763,79.8413075 1012.61962,79.2113254 1013.12361,78.7073398 C1013.62759,78.2033455 1014.50957,77.9513527 1015.64354,77.9513527 L1034.66906,77.9513527 L1034.66906,78.0773491 L1034.66906,78.0773491 Z M1129.67066,104.914671 L1080.02791,104.914671 C1080.90989,111.340514 1083.55582,116.506375 1087.96571,120.538278 C1092.3756,124.444175 1097.91946,126.460126 1104.47129,126.460126 C1108.1252,126.460126 1111.9051,125.830144 1115.93701,124.570172 C1119.9689,123.310207 1123.11882,121.672245 1125.63876,119.656303 C1126.39473,119.026312 1127.02472,118.774319 1127.52871,118.774319 C1128.15869,118.774319 1128.66268,119.026312 1129.16666,119.530306 C1129.67066,120.034292 1129.79665,120.664274 1129.79665,121.294256 C1129.79665,121.924247 1129.41866,122.554229 1128.91467,123.184211 C1127.02472,125.200162 1123.7488,126.964112 1118.96093,128.72807 C1114.17305,130.492029 1109.38517,131.374004 1104.34529,131.374004 C1096.0295,131.374004 1088.97369,128.602074 1083.42983,122.932218 C1077.88597,117.388359 1075.11404,110.584527 1075.11404,102.646727 C1075.11404,95.3389178 1077.75997,89.1650764 1082.92583,83.9992063 C1088.2177,78.8333362 1094.64354,76.1874029 1102.32935,76.1874029 C1110.26714,76.1874029 1116.81898,78.8333362 1121.98485,84.1252027 C1127.27672,89.5430657 1129.79665,96.4728855 1129.67066,104.914671 L1129.67066,104.914671 L1129.67066,104.914671 Z M1124.75678,99.8747973 C1123.7488,94.3309379 1121.22886,89.9210549 1117.19697,86.5191432 C1113.03907,83.1172228 1108.1252,81.353273 1102.45535,81.353273 C1096.78548,81.353273 1091.87161,82.9912264 1087.83971,86.3931382 C1083.68182,89.7950585 1081.16188,94.3309379 1080.1539,99.8747973 L1124.75678,99.8747973 L1124.75678,99.8747973 L1124.75678,99.8747973 Z M1177.17145,55.0199368 L1177.17145,124.444175 L1196.32297,124.444175 C1197.45693,124.444175 1198.33892,124.696177 1198.8429,125.074166 C1199.34689,125.578151 1199.59888,126.082137 1199.59888,126.838116 C1199.59888,127.594103 1199.34689,128.098088 1198.8429,128.602074 C1198.33892,129.10606 1197.45693,129.358052 1196.32297,129.358052 L1153.10606,129.358052 C1151.97209,129.358052 1151.09011,129.10606 1150.58612,128.602074 C1150.08214,128.098088 1149.83014,127.468098 1149.83014,126.838116 C1149.83014,126.082137 1150.08214,125.452155 1150.58612,125.074166 C1151.09011,124.570172 1151.97209,124.444175 1153.10606,124.444175 L1172.25757,124.444175 L1172.25757,60.0598105 L1158.27193,60.0598105 C1157.13796,60.0598105 1156.25598,59.8078177 1155.75199,59.3038321 C1155.24801,58.7998378 1154.99601,58.1698558 1154.99601,57.4138773 C1154.99601,56.6578988 1155.24801,56.1539046 1155.75199,55.6499189 C1156.25598,55.1459333 1157.13796,54.8939404 1158.27193,54.8939404 L1177.17145,54.8939404 L1177.17145,55.0199368 Z M1248.48564,55.0199368 L1248.48564,124.444175 L1267.63716,124.444175 C1268.77114,124.444175 1269.65311,124.696177 1270.1571,125.074166 C1270.66108,125.578151 1270.91307,126.082137 1270.91307,126.838116 C1270.91307,127.594103 1270.66108,128.098088 1270.1571,128.602074 C1269.65311,129.10606 1268.77114,129.358052 1267.63716,129.358052 L1224.42025,129.358052 C1223.28628,129.358052 1222.40431,129.10606 1221.90032,128.602074 C1221.39633,128.098088 1221.14434,127.468098 1221.14434,126.838116 C1221.14434,126.082137 1221.39633,125.452155 1221.90032,125.074166 C1222.40431,124.570172 1223.28628,124.444175 1224.42025,124.444175 L1243.57177,124.444175 L1243.57177,60.0598105 L1229.58612,60.0598105 C1228.45215,60.0598105 1227.57018,59.8078177 1227.06619,59.3038321 C1226.5622,58.7998378 1226.31021,58.1698558 1226.31021,57.4138773 C1226.31021,56.6578988 1226.5622,56.1539046 1227.06619,55.6499189 C1227.57018,55.1459333 1228.45215,54.8939404 1229.58612,54.8939404 L1248.48564,54.8939404 L1248.48564,55.0199368 Z M1319.67384,52.5 L1319.67384,65.3516771 L1312.49203,65.3516771 L1312.49203,52.5 L1319.67384,52.5 L1319.67384,52.5 Z M1319.92583,78.0773491 L1319.92583,124.444175 L1338.95135,124.444175 C1340.21133,124.444175 1340.9673,124.696177 1341.47129,125.074166 C1341.97528,125.578151 1342.22728,126.082137 1342.22728,126.838116 C1342.22728,127.594103 1341.97528,128.098088 1341.47129,128.602074 C1340.9673,129.10606 1340.08533,129.358052 1338.95135,129.358052 L1295.86045,129.358052 C1294.72647,129.358052 1293.8445,129.10606 1293.34051,128.602074 C1292.83652,128.098088 1292.58453,127.468098 1292.58453,126.838116 C1292.58453,126.082137 1292.83652,125.452155 1293.34051,125.074166 C1293.8445,124.570172 1294.72647,124.444175 1295.86045,124.444175 L1315.01197,124.444175 L1315.01197,83.1172228 L1300.77432,83.1172228 C1299.64035,83.1172228 1298.75838,82.86523 1298.25438,82.3612443 C1297.7504,81.8572587 1297.4984,81.227268 1297.4984,80.597286 C1297.4984,79.8413075 1297.7504,79.2113254 1298.25438,78.7073398 C1298.75838,78.2033455 1299.64035,77.9513527 1300.77432,77.9513527 L1319.92583,77.9513527 L1319.92583,78.0773491 L1319.92583,78.0773491 Z" id="svg_29" fill="#201600"/>
            </g>
        </g>
    </g>
</svg>